<svg width="11" height="15" viewBox="0 0 11 15" fill="none" xmlns="http://www.w3.org/2000/svg">
<path d="M10.0923 8.39234C9.6271 7.91757 9.03143 7.60478 8.30528 7.43721C8.92932 7.22496 9.45123 6.89542 9.8597 6.45416C10.4043 5.8621 10.6766 5.11922 10.6766 4.21995C10.6766 3.41564 10.4951 2.73979 10.132 2.18683C9.77461 1.63945 9.25268 1.22053 8.57192 0.930085C7.89115 0.645224 7.06287 0.5 6.08144 0.5H1.32175C1.15723 0.5 1.03242 0.544685 0.947322 0.628468C0.856553 0.717836 0.811157 0.840717 0.811157 1.0027V14.1733C0.811157 14.3353 0.856553 14.4582 0.947322 14.5476C1.03242 14.6314 1.15723 14.676 1.32175 14.676H6.34807C7.84576 14.676 8.99171 14.3521 9.79728 13.6986C10.6029 13.0507 11 12.0955 11 10.8332C11 9.81664 10.6993 9.00116 10.0923 8.39234ZM1.66779 1.28197H6.01904C7.24442 1.28197 8.1748 1.53332 8.81585 2.03043C9.45691 2.52196 9.7746 3.24808 9.7746 4.19761C9.7746 5.14715 9.45691 5.85651 8.81585 6.35921C8.1748 6.8619 7.24442 7.11325 6.01904 7.11325H1.66779V1.28197ZM9.15624 13.1568C8.52086 13.6483 7.57912 13.8941 6.32537 13.8941H1.66779V7.90081H6.32537C7.57912 7.90081 8.52086 8.14099 9.15624 8.62134C9.78595 9.10728 10.1036 9.86133 10.1036 10.8946C10.1036 11.928 9.78595 12.6708 9.15624 13.1568Z" fill="#202020"/>
</svg>
