<svg width="88" height="88" viewBox="0 0 88 88" fill="none" xmlns="http://www.w3.org/2000/svg">
<path d="M6.08332 21.2934V78.5854C6.08332 79.5568 6.39568 80.3549 7.02041 80.9796C7.64513 81.6043 8.44499 81.9167 9.41999 81.9167H78.5854C79.5568 81.9167 80.3548 81.6043 80.9796 80.9796C81.6043 80.3549 81.9167 79.5568 81.9167 78.5854V21.2934H60.25V50.9225C60.25 52.5836 59.5657 53.8475 58.1971 54.7142C56.8285 55.5808 55.4147 55.6314 53.9558 54.8658L44 49.9367L34.0387 54.8658C32.5835 55.6278 31.1715 55.5772 29.8029 54.7142C28.4343 53.8475 27.75 52.5836 27.75 50.9225V21.2934H6.08332ZM9.41999 87.3334C6.99332 87.3334 4.92777 86.4811 3.22332 84.7767C1.51888 83.0722 0.666656 81.0085 0.666656 78.5854V19.5492C0.666656 18.4947 0.834573 17.5017 1.17041 16.57C1.50624 15.6384 2.0118 14.7807 2.68707 13.9971L11.1262 3.86794C11.9099 2.80988 12.8903 2.01183 14.0675 1.47377C15.2447 0.935716 16.5068 0.666687 17.8537 0.666687H69.9404C71.2837 0.666687 72.5621 0.935716 73.7754 1.47377C74.9887 2.01183 75.9872 2.80808 76.7708 3.86252L85.3129 14.2084C85.9882 14.992 86.4937 15.8677 86.8296 16.8354C87.1654 17.7996 87.3333 18.8107 87.3333 19.8688V78.5854C87.3333 81.0049 86.4811 83.0686 84.7767 84.7767C83.0722 86.4811 81.0085 87.3334 78.5854 87.3334H9.41999ZM8.14166 15.8767H79.75L72.5458 7.22085C72.1955 6.87419 71.7947 6.59794 71.3433 6.3921C70.8919 6.18627 70.4225 6.08335 69.935 6.08335H17.9567C17.4728 6.08335 17.0033 6.18808 16.5483 6.39752C16.0933 6.60697 15.6961 6.88502 15.3567 7.23169L8.14166 15.8767ZM33.1612 21.2934V49.2054L43.9946 43.7888L54.8279 49.2054V21.2988L33.1612 21.2934Z" fill="#5080AF"/>
</svg>
