<svg width="9" height="15" viewBox="0 0 9 15" fill="none" xmlns="http://www.w3.org/2000/svg">
<path d="M8.52647 13.8941H1.02668V7.87847H8.11801C8.24849 7.87847 8.35627 7.84496 8.43002 7.77793C8.50377 7.7109 8.54349 7.61036 8.54349 7.47631C8.54349 7.35902 8.50377 7.26406 8.43002 7.19704C8.35627 7.13001 8.24849 7.0965 8.11801 7.0965H1.02668V1.28197H8.52647C8.66262 1.28197 8.76473 1.24846 8.83848 1.18143C8.91223 1.11441 8.95195 1.01387 8.95195 0.879815C8.95195 0.762519 8.91223 0.667566 8.83848 0.600539C8.76473 0.533513 8.66262 0.5 8.52647 0.5H0.680616C0.516097 0.5 0.391288 0.544685 0.306192 0.628468C0.215423 0.717836 0.170044 0.840717 0.170044 1.0027V14.1733C0.170044 14.3353 0.215423 14.4582 0.306192 14.5476C0.391288 14.6314 0.516097 14.676 0.680616 14.676H8.52647C8.66262 14.676 8.76473 14.6425 8.83848 14.5755C8.91223 14.5085 8.95195 14.4079 8.95195 14.2739C8.95195 14.151 8.91223 14.0616 8.83848 13.9946C8.76473 13.9276 8.66262 13.8941 8.52647 13.8941Z" fill="#202020"/>
</svg>
