<svg width="18" height="29" viewBox="0 0 18 29" fill="none" xmlns="http://www.w3.org/2000/svg">
<path d="M16.9341 0.525053C16.7809 0.391001 16.571 0.323975 16.2987 0.323975H1.02115C0.697787 0.323975 0.442499 0.413343 0.266634 0.586494C0.090769 0.759645 0 1.00541 0 1.32937V5.714H1.71894V1.8935H16.2987C16.571 1.8935 16.7809 1.82648 16.9341 1.69243C17.0816 1.55837 17.1553 1.3573 17.1553 1.08919C17.1553 0.849013 17.0816 0.659106 16.9341 0.525053ZM15.4818 13.517H1.71894V11.562H0V27.9108C0 28.2348 0.090769 28.4806 0.266634 28.6537C0.442499 28.8269 0.697787 28.9162 1.02115 28.9162C1.48634 28.9162 1.71894 28.5811 1.71894 27.9108V15.0809H15.4818C15.7541 15.0809 15.964 15.0139 16.1172 14.8798C16.2647 14.7458 16.3384 14.5447 16.3384 14.2766C16.3384 14.0364 16.2647 13.8521 16.1172 13.718C15.964 13.584 15.7541 13.517 15.4818 13.517Z" fill="#202020"/>
</svg>
