<svg width="86" height="86" viewBox="0 0 86 86" fill="none" xmlns="http://www.w3.org/2000/svg">
<path d="M82.9286 43C82.9286 53.5897 78.7218 63.7457 71.2338 71.2338C63.7457 78.7218 53.5897 82.9286 43 82.9286C32.4103 82.9286 22.2543 78.7218 14.7662 71.2338C7.27816 63.7457 3.07141 53.5897 3.07141 43M82.9286 43C82.9286 32.4103 78.7218 22.2543 71.2338 14.7662C63.7457 7.27816 53.5897 3.07141 43 3.07141C32.4103 3.07141 22.2543 7.27816 14.7662 14.7662C7.27816 22.2543 3.07141 32.4103 3.07141 43M82.9286 43H3.07141" stroke="#5080AF" stroke-width="5" stroke-linecap="round" stroke-linejoin="round"/>
<path d="M58.3571 43C57.6028 57.6015 52.2246 71.5848 43 82.9286C33.7754 71.5848 28.3972 57.6015 27.6428 43C28.3972 28.3985 33.7754 14.4151 43 3.07141C52.2246 14.4151 57.6028 28.3985 58.3571 43Z" stroke="#5080AF" stroke-width="5" stroke-linecap="round" stroke-linejoin="round"/>
</svg>
