<svg width="3" height="29" viewBox="0 0 3 29" fill="none" xmlns="http://www.w3.org/2000/svg">
<path d="M0.618774 28.0337C0.618774 28.3018 0.692525 28.514 0.845698 28.676C0.993197 28.838 1.20877 28.9162 1.48108 28.9162C1.77608 28.9162 1.99733 28.838 2.13348 28.676C2.26963 28.514 2.33771 28.3018 2.33771 28.0337V11.562H0.618774V28.0337ZM2.11079 0.301606C1.96329 0.156382 1.74771 0.0837708 1.48108 0.0837708C1.21444 0.0837708 0.993197 0.156382 0.845698 0.301606C0.692525 0.452415 0.618774 0.67025 0.618774 0.966282V5.71397H2.33771V0.966282C2.33771 0.67025 2.25829 0.452415 2.11079 0.301606Z" fill="#202020"/>
</svg>
