<svg width="173" height="29" viewBox="0 0 173 29" fill="none" xmlns="http://www.w3.org/2000/svg">
<path d="M16.9341 0.525053C16.7809 0.391001 16.571 0.323975 16.2987 0.323975H1.02115C0.697787 0.323975 0.442499 0.413343 0.266634 0.586494C0.090769 0.759645 0 1.00541 0 1.32937V5.714H1.71894V1.8935H16.2987C16.571 1.8935 16.7809 1.82648 16.9341 1.69243C17.0816 1.55837 17.1553 1.3573 17.1553 1.08919C17.1553 0.849013 17.0816 0.659106 16.9341 0.525053ZM15.4818 13.517H1.71894V11.562H0V27.9108C0 28.2348 0.090769 28.4806 0.266634 28.6537C0.442499 28.8269 0.697787 28.9162 1.02115 28.9162C1.48634 28.9162 1.71894 28.5811 1.71894 27.9108V15.0809H15.4818C15.7541 15.0809 15.964 15.0139 16.1172 14.8798C16.2647 14.7458 16.3384 14.5447 16.3384 14.2766C16.3384 14.0364 16.2647 13.8521 16.1172 13.718C15.964 13.584 15.7541 13.517 15.4818 13.517Z" fill="#202020"/>
<path d="M38.8888 17.5385C38.8888 20.834 38.1116 23.2916 36.5572 24.917C35.0084 26.5368 32.6938 27.3467 29.6134 27.3467C26.5329 27.3467 24.258 26.5368 22.6922 24.917C21.1265 23.2916 20.3436 20.834 20.3436 17.5385V11.562H18.6246V17.7787C18.6246 19.5996 18.8629 21.2082 19.3451 22.6046C19.816 23.9954 20.5138 25.1683 21.4271 26.1234C22.3348 27.073 23.4808 27.7935 24.8593 28.2739C26.2322 28.7542 27.815 29 29.6134 29C32.0131 29 34.027 28.5699 35.6608 27.7097C37.2947 26.8551 38.5257 25.5872 39.354 23.9116C40.1879 22.2359 40.6021 20.1916 40.6021 17.7787V11.562H38.8888V17.5385ZM40.3808 0.301606C40.2276 0.156382 40.0177 0.0837708 39.7454 0.0837708C39.4731 0.0837708 39.2632 0.156382 39.1101 0.301606C38.9626 0.452415 38.8888 0.67025 38.8888 0.966282V5.71397H40.6021V0.966282C40.6021 0.67025 40.5283 0.452415 40.3808 0.301606ZM20.3436 0.966282C20.3436 0.67025 20.2698 0.452415 20.1166 0.301606C19.9635 0.150797 19.7592 0.0837708 19.4869 0.0837708C19.2146 0.0837708 18.9991 0.156382 18.8516 0.301606C18.7041 0.452415 18.6246 0.67025 18.6246 0.966282V5.71397H20.3436V0.966282Z" fill="#202020"/>
<path d="M61.9215 16.952C60.5883 15.8685 58.5347 15.0418 55.7549 14.4777L51.71 13.6733C49.645 13.2712 48.1473 12.6233 47.2169 11.724C47.1602 11.6737 47.1091 11.6179 47.0694 11.562H44.9023C45.1746 12.0256 45.5093 12.4501 45.9121 12.8299C47.1659 14.0085 49.072 14.8575 51.6306 15.3658L55.6755 16.1701C57.9617 16.6225 59.6069 17.2592 60.6167 18.0803C61.6265 18.8958 62.1257 20.0297 62.1257 21.4763C62.1257 23.2469 61.4393 24.6656 60.0664 25.7381C58.6879 26.8105 56.6399 27.3467 53.9168 27.3467C51.9596 27.3467 50.2634 27.1233 48.8338 26.6653C47.4041 26.2072 46.0483 25.4867 44.7662 24.4925C44.579 24.3305 44.3861 24.2523 44.1989 24.2523C44.0117 24.2523 43.8415 24.3082 43.7053 24.4143C43.5692 24.5204 43.467 24.6601 43.399 24.8332C43.3309 25.0119 43.3309 25.1907 43.399 25.3806C43.467 25.5649 43.5975 25.7381 43.7904 25.9C44.63 26.5703 45.5774 27.1344 46.6269 27.5925C47.6764 28.0449 48.8111 28.3968 50.0364 28.6369C51.2618 28.8771 52.5553 29 53.9168 29C55.4712 29 56.8668 28.8157 58.1035 28.4526C59.3459 28.0951 60.3898 27.5757 61.2521 26.9054C62.1087 26.2352 62.7668 25.4364 63.232 24.5148C63.6915 23.5876 63.9241 22.5655 63.9241 21.4372C63.9241 19.5326 63.2603 18.0412 61.9215 16.952ZM46.8312 4.66949C47.5006 3.7032 48.431 2.96032 49.628 2.43529C50.825 1.91025 52.2319 1.65331 53.8374 1.65331C55.4429 1.65331 56.8611 1.8879 58.1659 2.35709C59.4707 2.82627 60.7131 3.56914 61.8818 4.58571C62.0747 4.77562 62.2619 4.87057 62.4548 4.87057C62.6476 4.87057 62.8008 4.8203 62.9256 4.72535C63.0448 4.63598 63.1412 4.50193 63.2093 4.32319C63.2774 4.15004 63.283 3.96572 63.232 3.75905C63.1752 3.56356 63.0561 3.37924 62.8632 3.21726C61.6378 2.1225 60.2763 1.30701 58.7786 0.787558C57.2809 0.262519 55.6357 0 53.8374 0C52.3908 0 51.0746 0.195493 49.8719 0.586479C48.6749 0.97188 47.6424 1.52485 46.7688 2.23421C45.9008 2.94357 45.2257 3.78698 44.7491 4.77003C44.6016 5.07165 44.4768 5.39002 44.3747 5.71398H46.2639C46.4114 5.34534 46.6042 4.99904 46.8312 4.66949Z" fill="#202020"/>
<path d="M66.6188 28.0337C66.6188 28.3018 66.6925 28.514 66.8457 28.676C66.9932 28.838 67.2088 28.9162 67.4811 28.9162C67.7761 28.9162 67.9973 28.838 68.1335 28.676C68.2696 28.514 68.3377 28.3018 68.3377 28.0337V11.562H66.6188V28.0337ZM68.1108 0.301606C67.9633 0.156382 67.7477 0.0837708 67.4811 0.0837708C67.2144 0.0837708 66.9932 0.156382 66.8457 0.301606C66.6925 0.452415 66.6188 0.67025 66.6188 0.966282V5.71397H68.3377V0.966282C68.3377 0.67025 68.2583 0.452415 68.1108 0.301606Z" fill="#202020"/>
<path d="M96.9583 11.562H95.1145C95.2336 12.4725 95.296 13.4443 95.296 14.4777C95.296 17.2146 94.8706 19.5381 94.0253 21.4596C93.1857 23.3754 91.9603 24.8332 90.3491 25.8386C88.7437 26.844 86.7978 27.3467 84.5116 27.3467C81.1077 27.3467 78.4641 26.2184 76.5863 23.9507C74.7085 21.683 73.7668 18.5272 73.7668 14.4777C73.7668 13.4499 73.8292 12.478 73.954 11.562H72.1102C71.9854 12.4836 71.9287 13.4555 71.9287 14.4777C71.9287 17.4547 72.4393 20.0297 73.4604 22.2024C74.4816 24.3752 75.9339 26.0508 77.8117 27.2294C79.6895 28.4079 81.9246 29 84.5116 29C86.4688 29 88.2274 28.6649 89.7818 27.9946C91.3306 27.3243 92.6524 26.3581 93.7416 25.0957C94.8309 23.839 95.6705 22.3086 96.2548 20.51C96.8391 18.7171 97.1341 16.6895 97.1341 14.4386C97.1341 13.4332 97.0774 12.4725 96.9583 11.562ZM78.708 3.15582C80.3192 2.15601 82.248 1.65331 84.5116 1.65331C87.9665 1.65331 90.6328 2.77042 92.4936 5.01021C92.6808 5.23363 92.8623 5.46822 93.0268 5.71398H95.0861C94.1274 4.0495 92.851 2.72573 91.2682 1.75385C89.379 0.586479 87.1268 0 84.5116 0C82.5487 0 80.7957 0.335131 79.2413 1.00539C77.6869 1.67565 76.3707 2.63636 75.2815 3.88193C74.7936 4.44049 74.3625 5.04931 73.9824 5.71398H76.053C76.7735 4.66949 77.6585 3.81491 78.708 3.15582Z" fill="#202020"/>
<path d="M121.188 25.7771L110.562 11.562H108.599L121.148 28.3521C121.284 28.542 121.426 28.6816 121.579 28.7766C121.727 28.8715 121.897 28.9162 122.09 28.9162C122.306 28.9162 122.476 28.838 122.601 28.676C122.72 28.514 122.782 28.285 122.782 27.9946V11.562H121.188V25.7771ZM122.578 0.301606C122.442 0.156382 122.254 0.0837708 122.005 0.0837708C121.755 0.0837708 121.562 0.156382 121.415 0.301606C121.267 0.452415 121.188 0.67025 121.188 0.966282V5.71397H122.782V0.966282C122.782 0.67025 122.714 0.452415 122.578 0.301606ZM102.013 0.201067C101.888 0.122869 101.707 0.0837708 101.463 0.0837708C101.241 0.0837708 101.066 0.161968 100.929 0.323948C100.793 0.485928 100.725 0.714934 100.725 1.00538V5.71397H102.319V3.1558L104.231 5.71397H106.188L102.399 0.642322C102.263 0.430073 102.138 0.284849 102.013 0.201067ZM100.725 28.0337C100.725 28.3018 100.799 28.514 100.952 28.676C101.1 28.838 101.298 28.9162 101.542 28.9162C101.786 28.9162 101.979 28.838 102.115 28.676C102.251 28.514 102.319 28.3018 102.319 28.0337V11.562H100.725V28.0337Z" fill="#202020"/>
<path d="M126.356 27.4193C126.22 27.2797 126.038 27.2071 125.806 27.2071C125.59 27.2071 125.403 27.2797 125.255 27.4193C125.102 27.5589 125.029 27.7433 125.029 27.9723C125.029 28.1845 125.102 28.3688 125.255 28.5141C125.403 28.6649 125.59 28.7375 125.806 28.7375C126.038 28.7375 126.22 28.6649 126.356 28.5141C126.492 28.3688 126.56 28.1845 126.56 27.9723C126.56 27.7433 126.492 27.5589 126.356 27.4193Z" fill="#202020"/>
<path d="M148.294 14.5223C148.226 14.4274 148.112 14.3771 147.965 14.3771C147.829 14.3771 147.721 14.4106 147.636 14.4776C147.556 14.5447 147.494 14.6452 147.454 14.7793L143.001 27.4807L138.57 14.863C138.513 14.7011 138.451 14.5782 138.377 14.5C138.304 14.4162 138.196 14.3771 138.06 14.3771C137.923 14.3771 137.816 14.4162 137.742 14.5C137.668 14.5782 137.594 14.7011 137.526 14.863L133.118 27.4193L128.705 14.7793C128.654 14.634 128.586 14.5279 128.512 14.4721C128.438 14.4106 128.336 14.3771 128.217 14.3771C128.064 14.3771 127.956 14.4274 127.877 14.5279C127.803 14.6285 127.791 14.7569 127.848 14.9021L132.568 28.313C132.636 28.4749 132.71 28.5978 132.789 28.676C132.874 28.7542 132.982 28.7989 133.118 28.7989C133.266 28.7989 133.379 28.7542 133.453 28.676C133.527 28.5978 133.595 28.4749 133.646 28.313L138.06 15.7623L142.451 28.313C142.519 28.4749 142.592 28.5978 142.678 28.676C142.757 28.7542 142.87 28.7989 143.024 28.7989C143.177 28.7989 143.29 28.7542 143.37 28.676C143.449 28.5978 143.517 28.4749 143.574 28.313L148.294 14.9021C148.362 14.7402 148.362 14.6117 148.294 14.5223Z" fill="#202020"/>
<path d="M159.526 27.8941H152.027V21.8785H159.118C159.248 21.8785 159.356 21.845 159.43 21.7779C159.504 21.7109 159.543 21.6104 159.543 21.4763C159.543 21.359 159.504 21.2641 159.43 21.197C159.356 21.13 159.248 21.0965 159.118 21.0965H152.027V15.282H159.526C159.663 15.282 159.765 15.2485 159.838 15.1814C159.912 15.1144 159.952 15.0139 159.952 14.8798C159.952 14.7625 159.912 14.6676 159.838 14.6005C159.765 14.5335 159.663 14.5 159.526 14.5H151.681C151.516 14.5 151.391 14.5447 151.306 14.6285C151.215 14.7178 151.17 14.8407 151.17 15.0027V28.1733C151.17 28.3353 151.215 28.4582 151.306 28.5476C151.391 28.6314 151.516 28.676 151.681 28.676H159.526C159.663 28.676 159.765 28.6425 159.838 28.5755C159.912 28.5085 159.952 28.4079 159.952 28.2739C159.952 28.151 159.912 28.0616 159.838 27.9946C159.765 27.9276 159.663 27.8941 159.526 27.8941Z" fill="#202020"/>
<path d="M172.092 22.3923C171.627 21.9176 171.031 21.6048 170.305 21.4372C170.929 21.225 171.451 20.8954 171.86 20.4542C172.404 19.8621 172.677 19.1192 172.677 18.22C172.677 17.4156 172.495 16.7398 172.132 16.1868C171.775 15.6394 171.253 15.2205 170.572 14.9301C169.891 14.6452 169.063 14.5 168.081 14.5H163.322C163.157 14.5 163.032 14.5447 162.947 14.6285C162.857 14.7178 162.811 14.8407 162.811 15.0027V28.1733C162.811 28.3353 162.857 28.4582 162.947 28.5476C163.032 28.6314 163.157 28.676 163.322 28.676H168.348C169.846 28.676 170.992 28.3521 171.797 27.6986C172.603 27.0507 173 26.0955 173 24.8332C173 23.8166 172.699 23.0012 172.092 22.3923ZM163.668 15.282H168.019C169.244 15.282 170.175 15.5333 170.816 16.0304C171.457 16.522 171.775 17.2481 171.775 18.1976C171.775 19.1472 171.457 19.8565 170.816 20.3592C170.175 20.8619 169.244 21.1133 168.019 21.1133H163.668V15.282ZM171.156 27.1568C170.521 27.6483 169.579 27.8941 168.325 27.8941H163.668V21.9008H168.325C169.579 21.9008 170.521 22.141 171.156 22.6213C171.786 23.1073 172.104 23.8613 172.104 24.8946C172.104 25.928 171.786 26.6708 171.156 27.1568Z" fill="#202020"/>
</svg>
