<svg width="100" height="100" viewBox="0 0 100 100" fill="none" xmlns="http://www.w3.org/2000/svg">
<path d="M20.8333 87.5H79.1667C83.769 87.5 87.5 83.769 87.5 79.1667V20.8333C87.5 16.231 83.769 12.5 79.1667 12.5H20.8333C16.231 12.5 12.5 16.231 12.5 20.8333V79.1667C12.5 83.769 16.231 87.5 20.8333 87.5Z" stroke="black" stroke-width="2" stroke-linecap="round" stroke-linejoin="round"/>
<path d="M69 69L52 50L69 31" stroke="black" stroke-width="2" stroke-linecap="round" stroke-linejoin="round"/>
<path d="M32 68.907V31.093C32 30.6968 31.7661 30.338 31.4036 30.1781C31.1465 30.0646 30.8535 30.0646 30.5964 30.1781C30.2339 30.338 30 30.6968 30 31.093V68.907C30 69.3032 30.2339 69.662 30.5964 69.8219C30.8535 69.9354 31.1465 69.9354 31.4036 69.8219C31.7661 69.662 32 69.3032 32 68.907Z" fill="black"/>
</svg>

