<svg width="23" height="29" viewBox="0 0 23 29" fill="none" xmlns="http://www.w3.org/2000/svg">
<path d="M21.1879 25.7771L10.5623 11.562H8.59942L21.1482 28.3521C21.2844 28.542 21.4262 28.6816 21.5794 28.7766C21.7269 28.8715 21.8971 28.9162 22.09 28.9162C22.3055 28.9162 22.4757 28.838 22.6005 28.676C22.7197 28.514 22.7821 28.285 22.7821 27.9946V11.562H21.1879V25.7771ZM22.5779 0.301606C22.4417 0.156382 22.2545 0.0837708 22.0049 0.0837708C21.7553 0.0837708 21.5624 0.156382 21.4149 0.301606C21.2674 0.452415 21.1879 0.67025 21.1879 0.966282V5.71397H22.7821V0.966282C22.7821 0.67025 22.714 0.452415 22.5779 0.301606ZM2.01301 0.201067C1.8882 0.122869 1.70666 0.0837708 1.46272 0.0837708C1.24147 0.0837708 1.0656 0.161968 0.92945 0.323948C0.793297 0.485928 0.72522 0.714934 0.72522 1.00538V5.71397H2.31935V3.1558L4.23117 5.71397H6.18837L2.39877 0.642322C2.26262 0.430073 2.13781 0.284849 2.01301 0.201067ZM0.72522 28.0337C0.72522 28.3018 0.798966 28.514 0.952139 28.676C1.09964 28.838 1.2982 28.9162 1.54214 28.9162C1.78608 28.9162 1.97896 28.838 2.11512 28.676C2.25127 28.514 2.31935 28.3018 2.31935 28.0337V11.562H0.72522V28.0337Z" fill="#202020"/>
</svg>
