<svg width="27" height="29" viewBox="0 0 27 29" fill="none" xmlns="http://www.w3.org/2000/svg">
<path d="M25.9583 11.562H24.1145C24.2336 12.4725 24.296 13.4443 24.296 14.4777C24.296 17.2146 23.8706 19.5381 23.0253 21.4596C22.1857 23.3754 20.9603 24.8332 19.3491 25.8386C17.7437 26.844 15.7978 27.3467 13.5116 27.3467C10.1077 27.3467 7.46408 26.2184 5.58629 23.9507C3.70851 21.683 2.76678 18.5272 2.76678 14.4777C2.76678 13.4499 2.82919 12.478 2.95399 11.562H1.11025C0.985441 12.4836 0.928711 13.4555 0.928711 14.4777C0.928711 17.4547 1.43929 20.0297 2.46044 22.2024C3.48159 24.3752 4.93389 26.0508 6.81168 27.2294C8.68946 28.4079 10.9246 29 13.5116 29C15.4688 29 17.2274 28.6649 18.7818 27.9946C20.3306 27.3243 21.6524 26.3581 22.7416 25.0957C23.8309 23.839 24.6705 22.3086 25.2548 20.51C25.8391 18.7171 26.1341 16.6895 26.1341 14.4386C26.1341 13.4332 26.0774 12.4725 25.9583 11.562ZM7.70802 3.15582C9.31917 2.15601 11.248 1.65331 13.5116 1.65331C16.9665 1.65331 19.6328 2.77042 21.4936 5.01021C21.6808 5.23363 21.8623 5.46822 22.0268 5.71398H24.0861C23.1274 4.0495 21.851 2.72573 20.2682 1.75385C18.379 0.586479 16.1268 0 13.5116 0C11.5487 0 9.7957 0.335131 8.24128 1.00539C6.68686 1.67565 5.37072 2.63636 4.28149 3.88193C3.7936 4.44049 3.36246 5.04931 2.98236 5.71398H5.05302C5.7735 4.66949 6.6585 3.81491 7.70802 3.15582Z" fill="#202020"/>
</svg>
