<svg width="21" height="29" viewBox="0 0 21 29" fill="none" xmlns="http://www.w3.org/2000/svg">
<path d="M18.9215 16.952C17.5883 15.8685 15.5347 15.0418 12.7549 14.4777L8.70999 13.6733C6.645 13.2712 5.14731 12.6233 4.21693 11.724C4.1602 11.6737 4.10914 11.6179 4.06943 11.562H1.90232C2.17463 12.0256 2.50934 12.4501 2.91212 12.8299C4.16587 14.0085 6.07202 14.8575 8.63057 15.3658L12.6755 16.1701C14.9617 16.6225 16.6069 17.2592 17.6167 18.0803C18.6265 18.8958 19.1257 20.0297 19.1257 21.4763C19.1257 23.2469 18.4393 24.6656 17.0664 25.7381C15.6879 26.8105 13.6399 27.3467 10.9168 27.3467C8.95961 27.3467 7.26336 27.1233 5.83375 26.6653C4.40414 26.2072 3.04828 25.4867 1.76617 24.4925C1.57896 24.3305 1.38607 24.2523 1.19886 24.2523C1.01165 24.2523 0.841457 24.3082 0.705304 24.4143C0.56915 24.5204 0.467035 24.6601 0.398958 24.8332C0.330881 25.0119 0.330881 25.1907 0.398958 25.3806C0.467035 25.5649 0.597516 25.7381 0.7904 25.9C1.63001 26.5703 2.57741 27.1344 3.62693 27.5925C4.67645 28.0449 5.81106 28.3968 7.03644 28.6369C8.26182 28.8771 9.55528 29 10.9168 29C12.4712 29 13.8668 28.8157 15.1035 28.4526C16.3459 28.0951 17.3898 27.5757 18.2521 26.9054C19.1087 26.2352 19.7668 25.4364 20.232 24.5148C20.6915 23.5876 20.9241 22.5655 20.9241 21.4372C20.9241 19.5326 20.2603 18.0412 18.9215 16.952ZM3.83116 4.66949C4.50058 3.7032 5.43096 2.96032 6.62798 2.43529C7.825 1.91025 9.23191 1.65331 10.8374 1.65331C12.4429 1.65331 13.8611 1.8879 15.1659 2.35709C16.4707 2.82627 17.7131 3.56914 18.8818 4.58571C19.0747 4.77562 19.2619 4.87057 19.4548 4.87057C19.6476 4.87057 19.8008 4.8203 19.9256 4.72535C20.0448 4.63598 20.1412 4.50193 20.2093 4.32319C20.2774 4.15004 20.283 3.96572 20.232 3.75905C20.1752 3.56356 20.0561 3.37924 19.8632 3.21726C18.6378 2.1225 17.2763 1.30701 15.7786 0.787558C14.2809 0.262519 12.6357 0 10.8374 0C9.39076 0 8.07461 0.195493 6.87192 0.586479C5.67491 0.97188 4.64241 1.52485 3.76876 2.23421C2.90078 2.94357 2.22568 3.78698 1.74914 4.77003C1.60165 5.07165 1.47684 5.39002 1.37472 5.71398H3.26386C3.41135 5.34534 3.60424 4.99904 3.83116 4.66949Z" fill="#202020"/>
</svg>
