<svg width="23" height="29" viewBox="0 0 23 29" fill="none" xmlns="http://www.w3.org/2000/svg">
<path d="M20.8888 17.5385C20.8888 20.834 20.1116 23.2916 18.5572 24.917C17.0084 26.5368 14.6938 27.3467 11.6134 27.3467C8.53288 27.3467 6.25798 26.5368 4.69222 24.917C3.12645 23.2916 2.34357 20.834 2.34357 17.5385V11.562H0.624634V17.7787C0.624634 19.5996 0.8629 21.2082 1.34511 22.6046C1.81597 23.9954 2.51376 25.1683 3.42713 26.1234C4.33482 27.073 5.48077 27.7935 6.85933 28.2739C8.23221 28.7542 9.81499 29 11.6134 29C14.0131 29 16.027 28.5699 17.6608 27.7097C19.2947 26.8551 20.5257 25.5872 21.354 23.9116C22.1879 22.2359 22.6021 20.1916 22.6021 17.7787V11.562H20.8888V17.5385ZM22.3808 0.301606C22.2276 0.156382 22.0177 0.0837708 21.7454 0.0837708C21.4731 0.0837708 21.2632 0.156382 21.1101 0.301606C20.9626 0.452415 20.8888 0.67025 20.8888 0.966282V5.71397H22.6021V0.966282C22.6021 0.67025 22.5283 0.452415 22.3808 0.301606ZM2.34357 0.966282C2.34357 0.67025 2.26982 0.452415 2.11665 0.301606C1.96347 0.150797 1.75924 0.0837708 1.48694 0.0837708C1.21463 0.0837708 0.999055 0.156382 0.851555 0.301606C0.704055 0.452415 0.624634 0.67025 0.624634 0.966282V5.71397H2.34357V0.966282Z" fill="#202020"/>
</svg>
