<svg width="22" height="15" viewBox="0 0 22 15" fill="none" xmlns="http://www.w3.org/2000/svg">
<path d="M21.2938 0.522329C21.2258 0.427375 21.1123 0.377106 20.9648 0.377106C20.8287 0.377106 20.7209 0.410619 20.6358 0.477645C20.5563 0.544671 20.4939 0.64521 20.4542 0.779263L16.0009 13.4807L11.5702 0.863046C11.5135 0.701066 11.4511 0.578184 11.3773 0.499987C11.3036 0.416204 11.1958 0.377106 11.0596 0.377106C10.9235 0.377106 10.8157 0.416204 10.742 0.499987C10.6682 0.578184 10.5944 0.701066 10.5264 0.863046L6.1184 13.4193L1.70476 0.779263C1.6537 0.634039 1.58563 0.527915 1.51188 0.47206C1.43813 0.410619 1.33601 0.377106 1.21688 0.377106C1.06371 0.377106 0.955923 0.427376 0.8765 0.527915C0.802751 0.628454 0.791403 0.756921 0.848133 0.902145L5.56812 14.313C5.63619 14.4749 5.70995 14.5978 5.78937 14.676C5.87447 14.7542 5.98225 14.7989 6.1184 14.7989C6.2659 14.7989 6.37937 14.7542 6.45312 14.676C6.52687 14.5978 6.59494 14.4749 6.646 14.313L11.0596 1.76231L15.4506 14.313C15.5187 14.4749 15.5924 14.5978 15.6775 14.676C15.7569 14.7542 15.8704 14.7989 16.0236 14.7989C16.1767 14.7989 16.2902 14.7542 16.3696 14.676C16.449 14.5978 16.5171 14.4749 16.5739 14.313L21.2938 0.902145C21.3619 0.740165 21.3619 0.611698 21.2938 0.522329Z" fill="#202020"/>
</svg>
