<svg width="110" height="86" viewBox="0 0 110 86" fill="none" xmlns="http://www.w3.org/2000/svg">
<path d="M10.0807 85.5834C7.27828 85.5834 4.94025 84.6465 3.06658 82.7729C1.19292 80.8992 0.254056 78.5591 0.25 75.7527V10.2474C0.25 7.44497 1.18886 5.10694 3.06658 3.23327C4.94431 1.3596 7.2803 0.420743 10.0746 0.416687H99.9254C102.724 0.416687 105.06 1.35555 106.933 3.23327C108.807 5.11099 109.746 7.44902 109.75 10.2474V75.7588C109.75 78.5571 108.811 80.8951 106.933 82.7729C105.056 84.6506 102.72 85.5874 99.9254 85.5834H10.0807ZM10.0807 79.5H73.25V55.8724H6.33333V75.7588C6.33333 76.6916 6.72267 77.5493 7.50133 78.332C8.28 79.1147 9.13775 79.5041 10.0746 79.5M79.3333 79.5H99.9254C100.858 79.5 101.716 79.1107 102.499 78.332C103.281 77.5534 103.671 76.6936 103.667 75.7527V26.1553H79.3333V79.5ZM6.33333 49.789H73.25V26.1492H6.33333V49.789Z" fill="#5080AF"/>
</svg>
